<svg width="1920" height="1920" viewBox="0 0 1920 1920" fill="none" xmlns="http://www.w3.org/2000/svg">
<g filter="url(#filter0_d_248_91)">
<circle cx="960" cy="960" r="250" fill="url(#paint0_linear_248_91)"/>
</g>
<path fill-rule="evenodd" clip-rule="evenodd" d="M960 1277C1135.07 1277 1277 1135.07 1277 960C1277 784.926 1135.07 643 960 643C784.926 643 643 784.926 643 960C643 1135.07 784.926 1277 960 1277ZM960 1275C1133.97 1275 1275 1133.97 1275 960C1275 786.03 1133.97 645 960 645C786.03 645 645 786.03 645 960C645 1133.97 786.03 1275 960 1275Z" fill="#A0A0A0"/>
<path fill-rule="evenodd" clip-rule="evenodd" d="M959.5 1345C1171.85 1345 1344 1172.85 1344 960.5C1344 748.147 1171.85 576 959.5 576C747.147 576 575 748.147 575 960.5C575 1172.85 747.147 1345 959.5 1345ZM959.5 1342.57C1170.51 1342.57 1341.57 1171.51 1341.57 960.5C1341.57 749.486 1170.51 578.426 959.5 578.426C748.486 578.426 577.426 749.486 577.426 960.5C577.426 1171.51 748.486 1342.57 959.5 1342.57Z" fill="#A0A0A0"/>
<path fill-rule="evenodd" clip-rule="evenodd" d="M960 1438C1223.99 1438 1438 1223.99 1438 960C1438 696.008 1223.99 482 960 482C696.008 482 482 696.008 482 960C482 1223.99 696.008 1438 960 1438ZM959.999 1434.98C1222.33 1434.98 1434.98 1222.33 1434.98 960C1434.98 697.673 1222.33 485.016 959.999 485.016C697.673 485.016 485.015 697.673 485.015 960C485.015 1222.33 697.673 1434.98 959.999 1434.98Z" fill="#A0A0A0"/>
<path fill-rule="evenodd" clip-rule="evenodd" d="M960 1570C1296.89 1570 1570 1296.89 1570 960C1570 623.106 1296.89 350 960 350C623.106 350 350 623.106 350 960C350 1296.89 623.106 1570 960 1570ZM959.999 1566.15C1294.77 1566.15 1566.15 1294.77 1566.15 960C1566.15 625.232 1294.77 353.848 959.999 353.848C625.23 353.848 353.847 625.232 353.847 960C353.847 1294.77 625.23 1566.15 959.999 1566.15Z" fill="#A0A0A0"/>
<path fill-rule="evenodd" clip-rule="evenodd" d="M959.5 1720C1378.96 1720 1719 1379.96 1719 960.5C1719 541.04 1378.96 201 959.5 201C540.04 201 200 541.04 200 960.5C200 1379.96 540.04 1720 959.5 1720ZM959.498 1715.21C1376.31 1715.21 1714.21 1377.31 1714.21 960.5C1714.21 543.686 1376.31 205.792 959.498 205.792C542.684 205.792 204.789 543.686 204.789 960.5C204.789 1377.31 542.684 1715.21 959.498 1715.21Z" fill="#A0A0A0"/>
<path fill-rule="evenodd" clip-rule="evenodd" d="M960 1920C1490.19 1920 1920 1490.19 1920 960C1920 429.807 1490.19 0 960 0C429.807 0 0 429.807 0 960C0 1490.19 429.807 1920 960 1920ZM959.997 1913.94C1486.85 1913.94 1913.94 1486.85 1913.94 960C1913.94 433.151 1486.85 6.05635 959.997 6.05635C433.149 6.05635 6.05369 433.151 6.05369 960C6.05369 1486.85 433.149 1913.94 959.997 1913.94Z" fill="#A0A0A0"/>
<defs>
<filter id="filter0_d_248_91" x="690" y="690" width="580" height="580" filterUnits="userSpaceOnUse" color-interpolation-filters="sRGB">
<feFlood flood-opacity="0" result="BackgroundImageFix"/>
<feColorMatrix in="SourceAlpha" type="matrix" values="0 0 0 0 0 0 0 0 0 0 0 0 0 0 0 0 0 0 127 0" result="hardAlpha"/>
<feOffset dx="20" dy="20"/>
<feGaussianBlur stdDeviation="20"/>
<feComposite in2="hardAlpha" operator="out"/>
<feColorMatrix type="matrix" values="0 0 0 0 0.815833 0 0 0 0 0.815833 0 0 0 0 0.815833 0 0 0 0.25 0"/>
<feBlend mode="normal" in2="BackgroundImageFix" result="effect1_dropShadow_248_91"/>
<feBlend mode="normal" in="SourceGraphic" in2="effect1_dropShadow_248_91" result="shape"/>
</filter>
<linearGradient id="paint0_linear_248_91" x1="960" y1="710" x2="960" y2="1210" gradientUnits="userSpaceOnUse">
<stop stop-color="#A0A0A0"/>
<stop offset="0.61"/>
<stop offset="1" stop-color="#3A3A3A"/>
</linearGradient>
</defs>
</svg>
